<svg xmlns="http://www.w3.org/2000/svg" width="1920" height="1080" viewBox="0 0 1920 1080">
  <defs>
    <radialGradient id="g1" cx="50%" cy="50%" r="70%">
      <stop offset="0%" style="stop-color:#0a2a3a;stop-opacity:1" />
      <stop offset="100%" style="stop-color:#050f15;stop-opacity:1" />
    </radialGradient>
  </defs>
  <rect width="1920" height="1080" fill="url(#g1)"/>
  <!-- Subtle network nodes -->
  <g fill="none" stroke="#00FFBC" stroke-width="0.5" opacity="0.3">
    <circle cx="300" cy="200" r="4"/><circle cx="500" cy="400" r="3"/><circle cx="800" cy="150" r="5"/>
    <circle cx="1100" cy="300" r="3"/><circle cx="1400" cy="200" r="4"/><circle cx="1600" cy="500" r="3"/>
    <circle cx="400" cy="700" r="4"/><circle cx="700" cy="600" r="3"/><circle cx="1000" cy="800" r="5"/>
    <circle cx="1300" cy="700" r="3"/><circle cx="1500" cy="900" r="4"/><circle cx="200" cy="500" r="3"/>
    <line x1="300" y1="200" x2="500" y2="400"/><line x1="500" y1="400" x2="800" y2="150"/>
    <line x1="800" y1="150" x2="1100" y2="300"/><line x1="1100" y1="300" x2="1400" y2="200"/>
    <line x1="1400" y1="200" x2="1600" y2="500"/><line x1="400" y1="700" x2="700" y2="600"/>
    <line x1="700" y1="600" x2="1000" y2="800"/><line x1="1000" y1="800" x2="1300" y2="700"/>
    <line x1="1300" y1="700" x2="1500" y2="900"/><line x1="200" y1="500" x2="400" y2="700"/>
    <line x1="500" y1="400" x2="700" y2="600"/><line x1="1100" y1="300" x2="1300" y2="700"/>
    <line x1="800" y1="150" x2="1000" y2="800"/>
  </g>
</svg>
